<mxfile host="app.diagrams.net" modified="2023-06-01T04:19:47.536Z" agent="Mozilla/5.0 (Windows NT 10.0; Win64; x64) AppleWebKit/537.36 (KHTML, like Gecko) Chrome/113.0.0.0 Safari/537.36 Edg/113.0.1774.57" etag="oSAvqL5JdJDUxrzeqUjw" version="21.2.9" type="github">
  <diagram name="第 1 页" id="UnE8FlbV-V-YRTldRhly">
    <mxGraphModel dx="535" dy="287" grid="0" gridSize="10" guides="1" tooltips="1" connect="1" arrows="1" fold="1" page="1" pageScale="1" pageWidth="2336" pageHeight="1654" math="0" shadow="0">
      <root>
        <mxCell id="0" />
        <mxCell id="1" parent="0" />
        <mxCell id="9P2MfaAdYKMgznJoCZ8G-3" value="" style="edgeStyle=orthogonalEdgeStyle;rounded=0;orthogonalLoop=1;jettySize=auto;html=1;" edge="1" parent="1" source="9P2MfaAdYKMgznJoCZ8G-1" target="9P2MfaAdYKMgznJoCZ8G-2">
          <mxGeometry relative="1" as="geometry" />
        </mxCell>
        <mxCell id="9P2MfaAdYKMgznJoCZ8G-1" value="S.val=45" style="text;html=1;strokeColor=none;fillColor=none;align=center;verticalAlign=middle;whiteSpace=wrap;rounded=0;" vertex="1" parent="1">
          <mxGeometry x="546" y="104" width="60" height="30" as="geometry" />
        </mxCell>
        <mxCell id="9P2MfaAdYKMgznJoCZ8G-2" value="B.val=45" style="text;html=1;strokeColor=none;fillColor=none;align=center;verticalAlign=middle;whiteSpace=wrap;rounded=0;" vertex="1" parent="1">
          <mxGeometry x="546" y="164" width="60" height="30" as="geometry" />
        </mxCell>
        <mxCell id="9P2MfaAdYKMgznJoCZ8G-4" value="B.val=22" style="text;html=1;strokeColor=none;fillColor=none;align=center;verticalAlign=middle;whiteSpace=wrap;rounded=0;" vertex="1" parent="1">
          <mxGeometry x="494" y="210" width="60" height="30" as="geometry" />
        </mxCell>
        <mxCell id="9P2MfaAdYKMgznJoCZ8G-6" value="1" style="text;html=1;strokeColor=none;fillColor=none;align=center;verticalAlign=middle;whiteSpace=wrap;rounded=0;" vertex="1" parent="1">
          <mxGeometry x="601" y="210" width="60" height="30" as="geometry" />
        </mxCell>
        <mxCell id="9P2MfaAdYKMgznJoCZ8G-7" value="" style="endArrow=classic;html=1;rounded=0;exitX=0.5;exitY=1;exitDx=0;exitDy=0;entryX=0.5;entryY=0;entryDx=0;entryDy=0;" edge="1" parent="1" source="9P2MfaAdYKMgznJoCZ8G-2" target="9P2MfaAdYKMgznJoCZ8G-4">
          <mxGeometry width="50" height="50" relative="1" as="geometry">
            <mxPoint x="486" y="231" as="sourcePoint" />
            <mxPoint x="536" y="181" as="targetPoint" />
          </mxGeometry>
        </mxCell>
        <mxCell id="9P2MfaAdYKMgznJoCZ8G-9" value="" style="endArrow=classic;html=1;rounded=0;exitX=0.5;exitY=1;exitDx=0;exitDy=0;entryX=0.5;entryY=0;entryDx=0;entryDy=0;" edge="1" parent="1" source="9P2MfaAdYKMgznJoCZ8G-2" target="9P2MfaAdYKMgznJoCZ8G-6">
          <mxGeometry width="50" height="50" relative="1" as="geometry">
            <mxPoint x="586" y="204" as="sourcePoint" />
            <mxPoint x="534" y="220" as="targetPoint" />
          </mxGeometry>
        </mxCell>
        <mxCell id="9P2MfaAdYKMgznJoCZ8G-10" value="B.val=11" style="text;html=1;strokeColor=none;fillColor=none;align=center;verticalAlign=middle;whiteSpace=wrap;rounded=0;" vertex="1" parent="1">
          <mxGeometry x="440.5" y="253" width="60" height="30" as="geometry" />
        </mxCell>
        <mxCell id="9P2MfaAdYKMgznJoCZ8G-11" value="0" style="text;html=1;strokeColor=none;fillColor=none;align=center;verticalAlign=middle;whiteSpace=wrap;rounded=0;" vertex="1" parent="1">
          <mxGeometry x="547.5" y="253" width="60" height="30" as="geometry" />
        </mxCell>
        <mxCell id="9P2MfaAdYKMgznJoCZ8G-12" value="" style="endArrow=classic;html=1;rounded=0;exitX=0.5;exitY=1;exitDx=0;exitDy=0;entryX=0.5;entryY=0;entryDx=0;entryDy=0;" edge="1" parent="1" target="9P2MfaAdYKMgznJoCZ8G-10">
          <mxGeometry width="50" height="50" relative="1" as="geometry">
            <mxPoint x="522.5" y="237" as="sourcePoint" />
            <mxPoint x="482.5" y="224" as="targetPoint" />
          </mxGeometry>
        </mxCell>
        <mxCell id="9P2MfaAdYKMgznJoCZ8G-13" value="" style="endArrow=classic;html=1;rounded=0;exitX=0.5;exitY=1;exitDx=0;exitDy=0;entryX=0.5;entryY=0;entryDx=0;entryDy=0;" edge="1" parent="1" target="9P2MfaAdYKMgznJoCZ8G-11">
          <mxGeometry width="50" height="50" relative="1" as="geometry">
            <mxPoint x="522.5" y="237" as="sourcePoint" />
            <mxPoint x="480.5" y="263" as="targetPoint" />
          </mxGeometry>
        </mxCell>
        <mxCell id="9P2MfaAdYKMgznJoCZ8G-14" value="B.val=5" style="text;html=1;strokeColor=none;fillColor=none;align=center;verticalAlign=middle;whiteSpace=wrap;rounded=0;" vertex="1" parent="1">
          <mxGeometry x="387" y="292" width="60" height="30" as="geometry" />
        </mxCell>
        <mxCell id="9P2MfaAdYKMgznJoCZ8G-15" value="1" style="text;html=1;strokeColor=none;fillColor=none;align=center;verticalAlign=middle;whiteSpace=wrap;rounded=0;" vertex="1" parent="1">
          <mxGeometry x="494" y="292" width="60" height="30" as="geometry" />
        </mxCell>
        <mxCell id="9P2MfaAdYKMgznJoCZ8G-16" value="" style="endArrow=classic;html=1;rounded=0;exitX=0.5;exitY=1;exitDx=0;exitDy=0;entryX=0.5;entryY=0;entryDx=0;entryDy=0;" edge="1" parent="1" target="9P2MfaAdYKMgznJoCZ8G-14">
          <mxGeometry width="50" height="50" relative="1" as="geometry">
            <mxPoint x="469" y="276" as="sourcePoint" />
            <mxPoint x="429" y="263" as="targetPoint" />
          </mxGeometry>
        </mxCell>
        <mxCell id="9P2MfaAdYKMgznJoCZ8G-17" value="" style="endArrow=classic;html=1;rounded=0;exitX=0.5;exitY=1;exitDx=0;exitDy=0;entryX=0.5;entryY=0;entryDx=0;entryDy=0;" edge="1" parent="1" target="9P2MfaAdYKMgznJoCZ8G-15">
          <mxGeometry width="50" height="50" relative="1" as="geometry">
            <mxPoint x="469" y="276" as="sourcePoint" />
            <mxPoint x="427" y="302" as="targetPoint" />
          </mxGeometry>
        </mxCell>
        <mxCell id="9P2MfaAdYKMgznJoCZ8G-18" value="B.val=2" style="text;html=1;strokeColor=none;fillColor=none;align=center;verticalAlign=middle;whiteSpace=wrap;rounded=0;" vertex="1" parent="1">
          <mxGeometry x="333.5" y="330" width="60" height="30" as="geometry" />
        </mxCell>
        <mxCell id="9P2MfaAdYKMgznJoCZ8G-19" value="1" style="text;html=1;strokeColor=none;fillColor=none;align=center;verticalAlign=middle;whiteSpace=wrap;rounded=0;" vertex="1" parent="1">
          <mxGeometry x="440.5" y="330" width="60" height="30" as="geometry" />
        </mxCell>
        <mxCell id="9P2MfaAdYKMgznJoCZ8G-20" value="" style="endArrow=classic;html=1;rounded=0;exitX=0.5;exitY=1;exitDx=0;exitDy=0;entryX=0.5;entryY=0;entryDx=0;entryDy=0;" edge="1" parent="1" target="9P2MfaAdYKMgznJoCZ8G-18">
          <mxGeometry width="50" height="50" relative="1" as="geometry">
            <mxPoint x="415.5" y="314" as="sourcePoint" />
            <mxPoint x="375.5" y="301" as="targetPoint" />
          </mxGeometry>
        </mxCell>
        <mxCell id="9P2MfaAdYKMgznJoCZ8G-21" value="" style="endArrow=classic;html=1;rounded=0;exitX=0.5;exitY=1;exitDx=0;exitDy=0;entryX=0.5;entryY=0;entryDx=0;entryDy=0;" edge="1" parent="1" target="9P2MfaAdYKMgznJoCZ8G-19">
          <mxGeometry width="50" height="50" relative="1" as="geometry">
            <mxPoint x="415.5" y="314" as="sourcePoint" />
            <mxPoint x="373.5" y="340" as="targetPoint" />
          </mxGeometry>
        </mxCell>
        <mxCell id="9P2MfaAdYKMgznJoCZ8G-27" value="" style="edgeStyle=orthogonalEdgeStyle;rounded=0;orthogonalLoop=1;jettySize=auto;html=1;" edge="1" parent="1" source="9P2MfaAdYKMgznJoCZ8G-22" target="9P2MfaAdYKMgznJoCZ8G-26">
          <mxGeometry relative="1" as="geometry" />
        </mxCell>
        <mxCell id="9P2MfaAdYKMgznJoCZ8G-22" value="B.val=1" style="text;html=1;strokeColor=none;fillColor=none;align=center;verticalAlign=middle;whiteSpace=wrap;rounded=0;" vertex="1" parent="1">
          <mxGeometry x="280" y="370" width="60" height="30" as="geometry" />
        </mxCell>
        <mxCell id="9P2MfaAdYKMgznJoCZ8G-23" value="0" style="text;html=1;strokeColor=none;fillColor=none;align=center;verticalAlign=middle;whiteSpace=wrap;rounded=0;" vertex="1" parent="1">
          <mxGeometry x="387" y="370" width="60" height="30" as="geometry" />
        </mxCell>
        <mxCell id="9P2MfaAdYKMgznJoCZ8G-24" value="" style="endArrow=classic;html=1;rounded=0;exitX=0.5;exitY=1;exitDx=0;exitDy=0;entryX=0.5;entryY=0;entryDx=0;entryDy=0;" edge="1" parent="1" target="9P2MfaAdYKMgznJoCZ8G-22">
          <mxGeometry width="50" height="50" relative="1" as="geometry">
            <mxPoint x="362" y="354" as="sourcePoint" />
            <mxPoint x="322" y="341" as="targetPoint" />
          </mxGeometry>
        </mxCell>
        <mxCell id="9P2MfaAdYKMgznJoCZ8G-25" value="" style="endArrow=classic;html=1;rounded=0;exitX=0.5;exitY=1;exitDx=0;exitDy=0;entryX=0.5;entryY=0;entryDx=0;entryDy=0;" edge="1" parent="1" target="9P2MfaAdYKMgznJoCZ8G-23">
          <mxGeometry width="50" height="50" relative="1" as="geometry">
            <mxPoint x="362" y="354" as="sourcePoint" />
            <mxPoint x="320" y="380" as="targetPoint" />
          </mxGeometry>
        </mxCell>
        <mxCell id="9P2MfaAdYKMgznJoCZ8G-26" value="1" style="text;html=1;strokeColor=none;fillColor=none;align=center;verticalAlign=middle;whiteSpace=wrap;rounded=0;" vertex="1" parent="1">
          <mxGeometry x="280" y="428" width="60" height="30" as="geometry" />
        </mxCell>
      </root>
    </mxGraphModel>
  </diagram>
</mxfile>
